<svg width="145" height="40" viewBox="0 0 145 40" fill="none" xmlns="http://www.w3.org/2000/svg">
<rect width="145" height="40" rx="5" fill="#242424"/>
<path d="M13.7026 31.3223C12.4028 31.3223 11.1836 31.2148 10.0449 31C8.91699 30.7959 7.86963 30.4844 6.90283 30.0654L7.32178 26.8105C8.50342 27.3154 9.64209 27.7021 10.7378 27.9707C11.8442 28.2285 12.9185 28.3574 13.9604 28.3574C15.4644 28.3574 16.5815 28.0942 17.312 27.5679C18.0425 27.0415 18.4077 26.2412 18.4077 25.167C18.4077 23.8027 17.7095 22.8037 16.313 22.1699L12.3491 20.3652C10.7915 19.6562 9.59375 18.8022 8.75586 17.8032C7.92871 16.8042 7.51514 15.5635 7.51514 14.0811C7.51514 12.083 8.1167 10.5361 9.31982 9.44043C10.5229 8.34473 12.2256 7.79688 14.4277 7.79688C15.9639 7.79688 17.3228 8.02246 18.5044 8.47363C19.686 8.9248 20.8247 9.66064 21.9204 10.6812L19.6646 12.9692C18.7192 12.1958 17.833 11.6372 17.0059 11.2935C16.1895 10.939 15.3354 10.7617 14.4438 10.7617C13.3374 10.7617 12.478 11.0303 11.8657 11.5674C11.2642 12.0938 10.9634 12.8779 10.9634 13.9199C10.9634 14.6611 11.1621 15.2681 11.5596 15.7407C11.957 16.2026 12.5425 16.6162 13.3159 16.9814L16.6675 18.5605C18.3647 19.3555 19.6538 20.2524 20.5347 21.2515C21.4155 22.2505 21.856 23.5342 21.856 25.1025C21.856 27.1758 21.1792 28.7334 19.8257 29.7754C18.4829 30.8066 16.4419 31.3223 13.7026 31.3223ZM37.8887 31V8.11914H41.2402V31H37.8887ZM26.416 31V8.11914H29.7676V31H26.416ZM27.0928 21.1387V18.0771H40.644V21.1387H27.0928ZM53.0996 31.3223C48.2012 31.3223 45.752 28.7656 45.752 23.6523V8.11914H49.1035V23.6523C49.1035 25.1777 49.4312 26.3271 50.0864 27.1006C50.7417 27.874 51.7676 28.2607 53.1641 28.2607C55.8711 28.2607 57.2246 26.7246 57.2246 23.6523V8.11914H60.5762V23.6523C60.5762 26.209 59.9424 28.1265 58.6748 29.4048C57.4072 30.6831 55.5488 31.3223 53.0996 31.3223ZM65.7324 31V8.11914H69.084V31H65.7324ZM65.7324 22.041V18.9795H77.9785V22.041H65.7324ZM65.7324 11.1807V8.11914H80.8789V11.1807H65.7324ZM85.0684 31V8.11914H88.4199V31H85.0684ZM85.0684 22.041V18.9795H97.3145V22.041H85.0684ZM85.0684 11.1807V8.11914H100.215V11.1807H85.0684ZM104.082 31V8.11914H107.434V31H104.082ZM104.082 31V27.9385H119.229V31H104.082ZM123.418 31V8.11914H126.77V31H123.418ZM123.418 31V27.9385H138.564V31H123.418ZM123.418 21.0742V18.0127H135.664V21.0742H123.418ZM123.418 11.1807V8.11914H138.564V11.1807H123.418Z" fill="#B3B3B3"/>
</svg>
